<svg xmlns="http://www.w3.org/2000/svg" viewBox="0 0 359.57 258.3"><defs><style>.cls-1,.cls-2{fill:none;}.cls-1{stroke:#231f20;}.cls-1,.cls-2,.cls-4{stroke-miterlimit:10;stroke-width:2px;}.cls-2,.cls-4{stroke:#010101;}.cls-3{fill:#010101;}.cls-4{fill:#fff;}</style></defs><g id="Layer_2" data-name="Layer 2"><g id="Layer_1-2" data-name="Layer 1"><path class="cls-1" d="M326.31,191.23c2.52,14.64-4.6,22.35,2.89,35.2,4.86,8.34,14.74,12.68,20.14,20.69,2.07,3.08,2.93,8.45,2.93,10.18"/><rect class="cls-2" x="38.5" y="103.55" width="116.11" height="190.7" rx="0.68" transform="translate(295.1 101.62) rotate(89.79)"/><path class="cls-3" d="M104.5,224.36l-.19-50.68h2.38l.18,50.67Zm3.54-.05-.18-50.64h1.21l.18,50.64Zm3.58,0-.18-50.64h1.17l.18,50.64Zm5.92,0-.18-50.64h1.17l.18,50.64Zm4.75,0-.18-50.64h2.34l.18,50.64Zm5.92,0L128,173.6h1.17l.18,50.64Zm2.38,0-.18-50.64h1.16l.19,50.64Zm2.38,0-.19-50.64H134l.18,50.64Zm4.71,0-.19-50.64h2.38l.18,50.64Zm5.92,0-.19-50.64h2.38l.18,50.64Zm4.75,0-.19-50.64h2.38l.18,50.63Zm4.75,0-.18-50.64h2.37l.18,50.64Zm3.54,0-.18-50.64h2.38l.18,50.63Zm6,0-.18-50.64H166l.19,50.64Zm4.71,0-.18-50.63h1.21l.18,50.64Zm2.38,0-.18-50.67h2.37l.18,50.67Z"/><path class="cls-2" d="M70.14,231.22c-.08-16.46-6.07-30.48-14.43-35.95a18.87,18.87,0,1,0-15.65.08C31.75,200.9,25.89,215,26,231.43"/><path class="cls-2" d="M284,92.12c-.67.4-1.2.66-1.68,1-2.58,1.93-5.15,1-8,.7q-5.4-.57-10.76-1.39-10.73-1.64-21.26-4.27c-14.42-3.62-29-8.38-42.12-15.3,0,0-2.5-1.32-5.83-3.38-.17-.1-.43-.32-.8-.52A6.8,6.8,0,0,1,190,64.08c-2.8-12.5-5.72-25-8.57-37.47-.47-2.05.28-3.5,2.31-4.08,4.58-1.33,9.17-2.59,13.8-3.71C219.82,13.42,242.42,6.24,265,2.49,282-.34,299.5,1.28,316.4,3.88c12.61,2,29.16,1.93,28.91,18.54-.13,8.39,1.66,21.21-4.28,28.12-14.7,17.08-2.88,47.54,2.7,66.09,4.46,14.83,18.09,61.12,14.13,66.88-2.85,4.13-46.63,12.27-51.42,6.08C297.77,178.4,284.24,93.17,284,92.12Zm-10.16-6a7.92,7.92,0,0,0,0-1c-1.48-9.75-2.94-19.5-4.46-29.25-.53-3.4-.6-3.35-3.93-4.17-11.55-2.82-23.15-5.46-34.63-8.55-13-3.51-25.95-7.42-38.91-11.16-.4-.12-.8-.21-1.35-.35.11.72.16,1.23.27,1.72,2,8.81,4,17.59,5.91,26.42a5.46,5.46,0,0,0,3,4,152.09,152.09,0,0,0,26.4,11.76,293.75,293.75,0,0,0,41.72,9.76C269.74,85.64,271.72,85.86,273.8,86.15Z"/><ellipse class="cls-4" cx="291.62" cy="110.02" rx="8.38" ry="12.48" transform="matrix(0.97, -0.26, 0.26, 0.97, -18.47, 78.58)"/><ellipse class="cls-4" cx="287.76" cy="111.05" rx="8.38" ry="12.48" transform="translate(-18.87 77.63) rotate(-14.88)"/><line class="cls-2" x1="284.56" y1="98.98" x2="288.41" y2="97.96"/><line class="cls-2" x1="290.97" y1="123.11" x2="294.82" y2="122.09"/><path class="cls-1" d="M326.31,191.23c2.52,14.64-4.6,22.35,2.89,35.2,4.86,8.34,14.74,12.68,20.14,20.69,2.07,3.08,2.93,8.45,2.93,10.18"/><rect class="cls-2" x="38.5" y="103.55" width="116.11" height="190.7" rx="0.68" transform="translate(295.1 101.62) rotate(89.79)"/><path class="cls-3" d="M104.5,224.36l-.19-50.68h2.38l.18,50.67Zm3.54-.05-.18-50.64h1.21l.18,50.64Zm3.58,0-.18-50.64h1.17l.18,50.64Zm5.92,0-.18-50.64h1.17l.18,50.64Zm4.75,0-.18-50.64h2.34l.18,50.64Zm5.92,0L128,173.6h1.17l.18,50.64Zm2.38,0-.18-50.64h1.16l.19,50.64Zm2.38,0-.19-50.64H134l.18,50.64Zm4.71,0-.19-50.64h2.38l.18,50.64Zm5.92,0-.19-50.64h2.38l.18,50.64Zm4.75,0-.19-50.64h2.38l.18,50.63Zm4.75,0-.18-50.64h2.37l.18,50.64Zm3.54,0-.18-50.64h2.38l.18,50.63Zm6,0-.18-50.64H166l.19,50.64Zm4.71,0-.18-50.63h1.21l.18,50.64Zm2.38,0-.18-50.67h2.37l.18,50.67Z"/><path class="cls-2" d="M70.14,231.22c-.08-16.46-6.07-30.48-14.43-35.95a18.87,18.87,0,1,0-15.65.08C31.75,200.9,25.89,215,26,231.43"/><path class="cls-2" d="M284,92.12c-.67.4-1.2.66-1.68,1-2.58,1.93-5.15,1-8,.7q-5.4-.57-10.76-1.39-10.73-1.64-21.26-4.27c-14.42-3.62-29-8.38-42.12-15.3,0,0-2.5-1.32-5.83-3.38-.17-.1-.43-.32-.8-.52A6.8,6.8,0,0,1,190,64.08c-2.8-12.5-5.72-25-8.57-37.47-.47-2.05.28-3.5,2.31-4.08,4.58-1.33,9.17-2.59,13.8-3.71C219.82,13.42,242.42,6.24,265,2.49,282-.34,299.5,1.28,316.4,3.88c12.61,2,29.16,1.93,28.91,18.54-.13,8.39,1.66,21.21-4.28,28.12-14.7,17.08-2.88,47.54,2.7,66.09,4.46,14.83,18.09,61.12,14.13,66.88-2.85,4.13-46.63,12.27-51.42,6.08C297.77,178.4,284.24,93.17,284,92.12Zm-10.16-6a7.92,7.92,0,0,0,0-1c-1.48-9.75-2.94-19.5-4.46-29.25-.53-3.4-.6-3.35-3.93-4.17-11.55-2.82-23.15-5.46-34.63-8.55-13-3.51-25.95-7.42-38.91-11.16-.4-.12-.8-.21-1.35-.35.11.72.16,1.23.27,1.72,2,8.81,4,17.59,5.91,26.42a5.46,5.46,0,0,0,3,4,152.09,152.09,0,0,0,26.4,11.76,293.75,293.75,0,0,0,41.72,9.76C269.74,85.64,271.72,85.86,273.8,86.15Z"/><ellipse class="cls-4" cx="291.62" cy="110.02" rx="8.38" ry="12.48" transform="matrix(0.97, -0.26, 0.26, 0.97, -18.47, 78.58)"/><ellipse class="cls-4" cx="287.76" cy="111.05" rx="8.38" ry="12.48" transform="translate(-18.87 77.63) rotate(-14.88)"/><line class="cls-2" x1="284.56" y1="98.98" x2="288.41" y2="97.96"/><line class="cls-2" x1="290.97" y1="123.11" x2="294.82" y2="122.09"/></g></g></svg>