<?xml version="1.0" encoding="utf-8"?>
<!-- Generator: Adobe Illustrator 24.3.0, SVG Export Plug-In . SVG Version: 6.00 Build 0)  -->
<svg version="1.1" id="Layer_1" xmlns="http://www.w3.org/2000/svg" xmlns:xlink="http://www.w3.org/1999/xlink" x="0px" y="0px"
	 viewBox="0 0 1856 898" style="enable-background:new 0 0 1856 898;" xml:space="preserve">
<path d="M1353,461.9c0,44.5,0,89,0,133.5c0,83,0,166,0,249c0,8.1,1.7,10.2,9.9,9.5c9.3-0.8,18.5-2.5,27.6-4.1
	c14.9-2.7,29.7-5.9,44.6-8.7c16.7-3.1,33.4-6,50.1-9.1c20.2-3.8,40.3-8,60.4-11.8c16.8-3.2,33.7-6,50.6-9.2
	c16.8-3.2,33.6-6.7,50.4-9.9c19.9-3.8,39.8-7.2,59.6-11.2c7.8-1.6,11-3.5,10.9-13.8c-0.5-138.6-0.8-277.1-1.1-415.7
	c-0.1-64.8,0-129.6,0-194.5c0-6.3-2.9-10.3-9-11.7c-9-2.1-18.1-4-27.1-6.2c-27.8-6.8-55.6-13.9-83.4-20.7
	c-26.9-6.6-53.8-12.8-80.7-19.4c-27.5-6.7-55-13.5-82.5-20.2c-22-5.4-43.9-11-65.8-16.4c-10.4-2.6-14.4,0.6-14.4,11.2
	C1353,208.9,1353,335.4,1353,461.9z M1049,360.4c-16.9-0.8-33.2-1.7-49.5-2.4c-7.3-0.3-14.7,0.5-21.9-0.5
	c-8.1-1.1-15.7-0.1-23.1,2.4c-9,3-10.5,11.4-11.2,19.1c-1.3,14.3-2.1,28.7-2.1,43.1c0,37.1,0.7,74.2,0.8,111.3c0,5.4,2,8.3,7.1,9.6
	c16.9,4.4,34.2,2.8,51.3,2.7c13.8,0,27.5-0.7,41.3-0.6c4.4,0,6.6,2.7,6.6,7.8c-0.3,21-0.2,42-0.1,63c0,7.6,3.5,10.5,10.7,11.1
	c7.7,0.6,13.4-2.7,18.4-7.7c6.5-6.6,12.7-13.6,19.2-20.1c43.7-44.1,87.5-88.2,131.2-132.3c0.4-0.4,0.7-0.7,1.1-1.1
	c6.7-7,7.7-19.5,1.1-25.9c-6.1-6-11.3-12.9-17.3-19c-19.4-19.6-38.8-39.1-58.5-58.5c-12-11.9-24.2-23.7-36.9-34.8
	c-12.5-10.8-25.8-20.7-38.7-31.1c-6.3-5.1-13.7-5.4-19.9-2c-6.3,3.4-9.6,10-9.5,17.9C1049.2,328.5,1049,344.5,1049,360.4z"/>
<path d="M0,490c1.2-6.4,2.4-12.7,3.5-19.1c1-5.8,1.7-11.6,2.7-17.4c1.7-9.9,5.2-19.3,10.9-27.5c4.9-7,10.4-13.5,16.3-19.7
	c2.5-2.7,2.8-5.1,2.5-8.2c-1.3-11.9-3-23.7-3.8-35.6c-0.6-9.1-0.6-18.4,0-27.5c0.7-9.9,2.3-19.8,3.8-29.6c1.5-10.1,3.7-20.1,5-30.2
	c1.2-9.3,4.9-17.7,10.7-24.5c4.9-5.7,11.5-10.2,17.9-14.3c13.9-8.8,28.6-15.9,44.1-21.6c25.8-9.5,51.4-19.3,77.1-28.9
	c17.3-6.4,34.7-12.6,52-19.1c17.4-6.5,34.7-13.4,52.2-20c20.5-7.7,41.2-15.1,61.8-22.7c15.5-5.7,30.9-11.7,46.4-17.4
	c15.5-5.7,31.2-11.1,46.7-16.9c15-5.6,29.8-11.8,44.9-17.3c6.5-2.4,13.3-4,20.2-5.3c6.9-1.3,12.5,3.3,18.5,5.6
	c13.1,4.9,26,10.1,39,15.3c11.6,4.6,23.1,9.4,34.7,14c23.7,9.4,47.4,18.7,71.1,28.1c16.2,6.5,32.3,13.2,48.4,19.6
	c17.9,7.2,35.8,14.1,53.7,21.3c23.3,9.3,46.5,18.6,69.7,28c3,1.2,5.8,3.1,8.9,3.8c4.7,1,4.3,4.2,4.4,7.5c0.1,3.5-2.2,4.6-4.9,5.7
	c-11.5,4.6-22.9,9.3-34.3,14.2c-1.3,0.5-2.7,2.5-2.8,3.8c-0.1,36.1-0.1,72.3-0.1,107.3c15.1,5.4,29.6,10.6,44.1,15.8
	c2.5,0.9,4.9,2.3,3.8,5.3c-0.7,1.8-2.3,3.8-3.9,4.6c-13,6.7-26,13.4-39.2,19.6c-9.7,4.5-19.7,8.6-29.7,12.2c-3.5,1.3-4,2.8-4,6
	c-0.2,12.8-0.6,25.5-0.9,38.3c-0.4,16.6-0.6,33.2-1.1,49.8c-0.1,3.6,1.3,4.7,4.3,5.9c17.5,6.9,35,13.9,52.4,21.3
	c4.5,1.9,10,4.1,10.2,10.1c0.2,6-5.9,6.9-9.7,9.1c-9.6,5.6-19.6,10.5-29.3,15.9c-1.3,0.7-2.7,2.8-2.7,4.3c-0.2,35-0.1,70-0.2,105
	c0,2.6,0.9,4.1,3.3,4.5c12.7,2,24,7.8,35.3,13.4c2.3,1.1,4.1,3.4,5.7,5.5c2,2.7,0.5,4.4-2.3,5.7c-12.6,5.7-25,11.7-37.7,17.3
	c-18.3,8.1-36.6,16.1-54.9,24c-10.9,4.7-21.9,9.2-32.8,13.9c-16.6,7.1-33.1,14.2-49.7,21.3c-17.3,7.4-34.7,14.6-52.1,22
	c-22,9.3-43.9,18.7-65.9,28c-12.7,5.4-25.4,10.6-38.1,16c-21.6,9.2-43.3,18.4-64.9,27.6c-16.8,7.1-33.5,14.2-50.4,21.2
	c-9.7,4-19.6,7.8-29.4,11.7c-0.5,0.2-0.8,1-1.2,1.5c-7.3,0-14.7,0-22,0c-4.3-1.1-8.8-1.8-12.9-3.5c-22.9-9.6-45.7-19.5-68.5-29.2
	c-25.2-10.8-50.4-21.5-75.6-32.3c-19.9-8.6-39.7-17.3-59.6-25.8c-16.1-6.9-32.2-13.6-48.2-20.5c-11.8-5.1-23.7-10.2-35.3-15.7
	c-3.4-1.6-7.5-2.8-8.9-7.5c-5-16.2-11-32.1-15.2-48.5c-3-11.8-4.7-24.1-5.4-36.3c-0.7-12.5,0.2-25.2,0.9-37.8
	c0.4-7.3,2-14.6,2.8-21.9c0.4-3.7,1.6-8,0.1-10.9c-3.3-6.6-8.7-12.1-12-18.7c-5.3-10.4-10-21.3-14.3-32.2C3.2,550.7,1.9,543.7,0,537
	C0,521.3,0,505.7,0,490z M382.7,514.1c1.9-0.2,3.1-0.1,4.1-0.5c9.1-3.5,18.4-6.6,27.2-10.7c25-11.4,49.7-23.2,74.6-34.7
	c24.6-11.4,49.3-22.7,74-34c22-10.1,44.1-20.1,66.1-30.1c21.1-9.6,42-19.5,63.2-28.9c26.4-11.8,53-23.3,79.5-34.8
	c2.9-1.3,3.7-2.9,3.6-5.9c-0.1-22.3-0.1-44.7-0.1-67c0-5.3,0-10.5,0-16.1c-1.9,0.7-3.3,1.1-4.6,1.6c-11.6,4.9-23.3,10-34.9,14.9
	c-23.1,9.7-46.1,19.5-69.2,29.1c-23.3,9.8-46.7,19.4-70,29.1c-18.9,7.9-37.7,15.9-56.6,23.7c-17.8,7.4-35.7,14.8-53.5,22.3
	c-9,3.8-18,7.5-26.9,11.4c-12.6,5.4-25.2,11-37.8,16.4c-11.1,4.8-22.2,9.5-33.3,14.1c-2.4,1-3.1,2.3-3.1,4.8c0.2,6,0.1,12,0,18
	c-0.3,21.3-0.6,42.5-1,63.8C383.9,504.9,383.2,509.3,382.7,514.1z M384,833.2c17.8-8.3,36.1-16.7,54.4-25.3
	c16.8-7.9,33.4-16,50.3-23.7c14.5-6.6,29.2-12.8,43.7-19.3c17.3-7.8,34.3-16.1,51.7-23.8c21.6-9.6,43.4-18.8,65.2-28.1
	c17.1-7.3,34.1-15,51.4-21.9c25.6-10.3,51.1-21,78.8-27.6c-0.5-7.4-1.1-14.8-1.4-22.2c-0.5-12.3-0.8-24.5-1-36.8
	c-0.2-9.6,0-19.2,0-29.6c-13.8,6.2-26.2,11.8-38.7,17.4c-19.2,8.6-38.5,17.2-57.8,25.7c-19.1,8.4-38.2,16.7-57.3,24.9
	C602.1,652,581,661,559.8,670c-20.6,8.7-41.4,17.2-62,26.1c-21.4,9.3-42.7,18.9-64,28.6c-15,6.8-29.8,13.9-44.7,20.7
	c-3.1,1.4-4.2,3.1-4.2,6.6c0,10.9-0.7,21.9-0.8,32.8C383.9,800.8,384,816.9,384,833.2z M745.5,420.3
	c-126.8,57.3-253.7,114.8-382.6,168.1c-0.7,26.4-1.4,53.6-2.2,81.2c129.4-54.4,258.3-108.5,387.5-162.8
	C747.3,478.4,746.4,449.6,745.5,420.3z M340,677.2c0-16.2-0.1-30.6,0-45c0.2-13.9,0.5-27.9,1-41.8c0.1-3.6-1-5.3-4.4-6.5
	c-8.5-2.9-16.8-6-25.2-9.2c-13.2-5.1-26.2-10.5-39.3-15.7c-17.8-7-35.6-13.9-53.4-21.1c-17.5-7.1-34.9-14.4-52.2-21.7
	c-29.7-12.6-59.4-25.4-89.2-38c-2.8-1.2-6.9-2.9-8.7-1.7c-4.7,3-10.3,6.8-12.2,11.6c-4.9,12.3-3.2,25.6-1.9,38.4
	c0.9,9.7,3.8,19.1,5.4,28.8c0.8,4.7,3.1,7.6,7.4,9.4c8.8,3.7,17.6,7.5,26.4,11.2c20.3,8.4,40.6,16.7,60.9,25.1
	c22.5,9.3,45.1,18.7,67.6,28c17.8,7.4,35.7,14.8,53.5,22.3c9.6,4,19,8.4,28.7,12.3C315.6,668.1,327,672.3,340,677.2z M363.4,418.8
	c-92-36.7-183.2-73.1-274.2-109.4c-1.3,5.8-3.4,12.4-4,19.1c-0.9,9.4-1,18.8-1.1,28.3c-0.1,12.4,2.2,24.3,8.1,35.4
	c0.9,1.6,2.2,3.3,3.8,4.1c4.2,2.2,8.5,3.9,12.9,5.7c13.6,5.7,27.2,11.4,40.8,17.2c14.5,6.2,28.9,12.6,43.3,18.8
	c15.1,6.4,30.3,12.6,45.4,19.1c22.4,9.6,44.6,19.3,66.9,29c9.8,4.3,19.6,8.6,29.5,12.8c8.6,3.7,17.2,7.3,26.8,11.3
	C362.2,479.1,362.8,448.5,363.4,418.8z M360.5,832c0.5-6.3,1.3-12.2,1.5-18.1c0.5-17.6,0.6-35.2,1.1-52.8c0.1-4.1-0.4-6.9-5.1-7.7
	c-2.4-0.4-4.6-1.5-6.9-2.4c-17.3-6.7-34.6-13.2-51.8-20.1c-14-5.6-28-11.5-41.7-17.8c-12.7-5.7-25-12.4-37.7-18
	c-20.5-9-41.3-17.5-61.9-26.1c-23-9.7-46.1-19.3-69.8-29.1c-1.1,6.8-2.5,13.3-3,19.9c-1.2,18.4,1.7,36.5,4.1,54.6
	c0.4,3.1,2.8,6.8,5.4,8.4c5.1,3.1,10.9,4.9,16.4,7.2c25.7,10.6,51.5,21.2,77.3,31.7c23.5,9.6,47,19.1,70.5,28.7
	c16.9,6.9,33.8,13.8,50.6,20.8c9.1,3.8,18.1,7.9,27.2,11.6C344.4,826,352.3,828.9,360.5,832z"/>
<path d="M1856,862c-0.5,1.3-1.1,2.6-1.4,3.9c-1.1,4-3.6,6.7-7.8,7.1c-10.8,0.8-21.7,1.7-32.6,1.9c-6,0.1-12.2-0.4-18-1.9
	c-9.8-2.6-15.2-10.4-15.2-20.4c0-257,0-514,0-771c0-12.3,0-24.5,0-37.2c-151.2,0-303.3,0-455.3,0c0,10.6,0,21.3,0,32
	c0,1.7,0.3,3.3,0.3,5c0,257.5,0,515,0.1,772.5c0,9.4-6.8,19.5-17.3,20.9c-15.9,2.2-31.9,2.7-47.8-0.7c-6.8-1.5-9.1-4-9.7-12.6
	c-0.5-6.5-0.1-13.2,0.9-19.7c1.2-7.8,5.1-10.9,12.9-11.7c4.1-0.4,8.2-1,12.3-0.9c4.5,0.1,5.8-1.7,5.8-6.2
	c-0.1-111.3-0.2-222.7-0.1-334c0.1-84.4,0.6-168.9,1-253.3c0.3-72.9,0.6-145.9,1-218.8c0-3.4-0.2-7.3,1.2-10.2
	c1.2-2.5,4.6-4.1,7.3-5.5c1.3-0.7,3.3-0.1,4.9-0.1c159.2,0,318.3,0,477.5,0c2,0,4-0.6,6-1c11,0,22,0,33,0c2,1.7,5,3.1,5.7,5.3
	c1.2,3.6,1.2,7.8,1.2,11.7c0.4,72.4,0.7,144.8,1,217.2c0.4,84.7,0.8,169.5,1,254.2c0.2,111.1,0.1,222.2-0.1,333.4
	c0,4.8,1.5,6.4,6.2,6.3c4.3-0.1,8.6,0.4,12.8,1c5.9,0.8,10.4,3.8,12.1,9.9c0.3,1,0.7,2,1,3C1856,848.7,1856,855.3,1856,862z"/>
<path d="M1353,461.9c0-126.5,0-253,0-379.4c0-10.6,4-13.8,14.4-11.2c22,5.4,43.9,11,65.8,16.4c27.5,6.8,55,13.6,82.5,20.2
	c26.9,6.5,53.8,12.8,80.7,19.4c27.8,6.8,55.6,13.8,83.4,20.7c9,2.2,18.1,4.1,27.1,6.2c6.1,1.4,9,5.4,9,11.7
	c0,64.8-0.1,129.6,0,194.5c0.3,138.6,0.6,277.1,1.1,415.7c0,10.3-3.1,12.2-10.9,13.8c-19.8,4-39.7,7.4-59.6,11.2
	c-16.8,3.2-33.6,6.7-50.4,9.9c-16.8,3.2-33.7,6-50.6,9.2c-20.2,3.8-40.3,8-60.4,11.8c-16.7,3.2-33.4,6-50.1,9.1
	c-14.9,2.8-29.7,5.9-44.6,8.7c-9.2,1.7-18.4,3.4-27.6,4.1c-8.2,0.7-9.9-1.5-9.9-9.5c0-83,0-166,0-249
	C1353,550.9,1353,506.4,1353,461.9z M1650.8,489.9c7.3,0,14.6,0.1,22,0c7.1-0.1,11-4.1,11.1-11.3c0.1-7.2,0.1-14.3,0-21.5
	c-0.1-6.8-4.1-10.9-10.9-11c-14.6-0.1-29.3-0.1-43.9,0c-6.8,0.1-10.8,4.2-10.9,11c-0.1,7.2-0.1,14.3,0,21.5
	c0.1,7.4,4.1,11.2,11.7,11.3C1636.8,489.9,1643.8,489.9,1650.8,489.9z"/>
<path d="M1049,360.4c0-16,0.2-32-0.1-47.9c-0.1-7.9,3.1-14.5,9.5-17.9c6.2-3.3,13.6-3.1,19.9,2c12.9,10.4,26.2,20.2,38.7,31.1
	c12.7,11.1,24.9,22.9,36.9,34.8c19.7,19.3,39.1,38.9,58.5,58.5c6,6.1,11.2,13.1,17.3,19c6.6,6.4,5.6,18.9-1.1,25.9
	c-0.3,0.4-0.7,0.7-1.1,1.1c-43.8,44.1-87.5,88.1-131.2,132.3c-6.5,6.6-12.7,13.5-19.2,20.1c-5,5.1-10.6,8.4-18.4,7.7
	c-7.2-0.6-10.7-3.6-10.7-11.1c0-21-0.2-42,0.1-63c0.1-5.2-2.2-7.8-6.6-7.8c-13.8-0.1-27.5,0.6-41.3,0.6c-17.1,0.1-34.4,1.7-51.3-2.7
	c-5-1.3-7-4.1-7.1-9.6c-0.1-37.1-0.8-74.2-0.8-111.3c0-14.4,0.8-28.8,2.1-43.1c0.7-7.8,2.3-16.1,11.2-19.1
	c7.4-2.5,15.1-3.5,23.1-2.4c7.2,1,14.6,0.2,21.9,0.5C1015.8,358.7,1032.1,359.6,1049,360.4z"/>
</svg>
