<?xml version="1.0" encoding="utf-8"?>
<!-- Generator: Adobe Illustrator 24.3.0, SVG Export Plug-In . SVG Version: 6.00 Build 0)  -->
<svg version="1.1" id="Layer_1" xmlns="http://www.w3.org/2000/svg" xmlns:xlink="http://www.w3.org/1999/xlink" x="0px" y="0px"
	 viewBox="0 0 2118 1375" style="enable-background:new 0 0 2118 1375;" xml:space="preserve">
<style type="text/css">
	.st0{fill:#FFFFFF;}
</style>
<path class="st0" d="M765,0c36.3,13.8,72.8,27.3,109,41.4c132.8,51.3,265.5,102.8,398.2,154.2c1.7,0.7,3.9,1,4.9,2.3
	c1.8,2.3,4,5.2,4.1,7.9c0,2-2.8,4.9-5,5.8c-17.3,7.4-34.7,14.5-52.2,21.3c-4.2,1.7-5.6,3.8-5.6,8.4c0.2,51.2,0.1,102.3,0,153.5
	c0,3,1,3.9,3.7,4.7c17.7,5.2,35.4,10.4,52.9,16c4.4,1.4,8.6,3.6,12.6,6c4.9,3,5,5.1,0,7.7c-16.6,8.4-33.2,16.9-50.2,24.5
	c-19,8.4-38.4,15.9-57.7,23.6c-3.7,1.5-5,3.4-5.1,7.3c-0.6,34.5-1.3,69-2.1,103.4c-0.2,9-0.4,18-1,27c-0.3,4.8,1.2,6.9,5.9,8.5
	c22.5,8,45,16.2,67.3,25c7.7,3,15,7.4,21.8,12c8.3,5.6,8,9.4-0.7,14.1c-16.8,9.1-33.8,18-50.8,26.7c-3.2,1.6-4.6,3.4-4.6,7.1
	c-0.2,51.3-0.5,102.7-0.9,154c0,3.8,1,5.4,4.9,6.4c17.2,4.2,33.9,9.9,49.4,18.5c4.9,2.8,9.3,6.5,14,9.7c-0.2,0.6-0.3,1.2-0.5,1.8
	c-2.6,1.3-5.1,2.9-7.7,4c-38.9,16.8-77.7,34.1-116.9,50.3c-188.5,77.8-377.1,155.3-565.6,232.9c-6,2.5-12.4,4.2-18,7.2
	c-10.3,5.5-20.9,4.1-31.7,3c-16.4-1.8-31.5-7.9-46.6-14.2c-126-52.6-252-105.2-378-157.9c-11.3-4.7-22.4-10.2-33.4-15.6
	c-2.1-1-4.2-3.4-5-5.7c-10.8-30.6-22.3-60.9-27.7-93c-3.1-18.6-4.4-37.4-2.9-56.2c1.6-20.2,2.9-40.5,5.7-60.6
	c1.3-9.2-0.9-15.7-6.1-23c-19.1-26.4-33.3-55.3-39.6-87.5c-1.3-6.7-1.7-13.5-2.6-20.2c-0.4-2.8-0.8-5.5-1.2-8.3c0-5.3,0-10.7,0-16
	c0.4-1.6,0.8-3.2,1-4.8c2.4-19.9,4.5-39.9,7.3-59.8c3.2-22.3,8.9-43.8,23.5-61.6c6.7-8.2,14.2-15.8,21.2-23.9
	c1.3-1.5,2.8-3.6,2.6-5.3c-1.7-15.2-4.5-30.3-5.5-45.5c-1.1-17.4-2.1-35-0.4-52.3c2.5-25.4,7.6-50.6,11.5-75.8
	c2.4-15.2,5.8-30,16.4-42.1c5.5-6.3,11.6-11.7,18.7-16.2c17.4-11.1,35.3-21.4,54.6-28.9c11.6-4.5,23.2-9.2,34.9-13.5
	c178-64.4,356.1-128.7,534.1-193c13.7-5,27.4-10.2,41-15.3C762.3,0,763.7,0,765,0z M1153.4,262.1c-2.6,1-4.3,1.5-6,2.2
	c-105,42.9-210,85.7-315,128.6c-85.3,34.9-170.5,69.8-255.8,104.6c-4.4,1.8-5.9,4.1-5.9,8.8c-0.4,29.3-1.1,58.6-1.7,87.9
	c-0.3,15.8-0.6,31.6-0.9,47.5c-0.1,2.6,0.2,5,3.7,4.2c5.8-1.3,11.9-1.9,17.3-4.2c100.4-44.5,200.5-89.5,300.9-133.8
	c86.3-38.1,172.9-75.4,259.4-113c3.2-1.4,4.1-3,4.1-6.3c-0.1-40.5-0.1-81-0.1-121.5C1153.4,265.7,1153.4,264.4,1153.4,262.1z
	 M567.9,1108c3.2-1.4,5.3-2.3,7.4-3.2c92.8-41.4,185.4-83.2,278.5-124c82.8-36.4,165.9-72.2,251-102.9c15.7-5.7,32-10.2,48.2-14.1
	c5.3-1.3,6.6-2.6,6.4-7.7c-0.9-17.8-1.5-35.6-2.1-53.4c-0.8-22.6-1.5-45.3-2.2-67.9c0-1.4-0.4-2.8-0.8-4.7c-2.1,0.9-3.7,1.4-5.2,2.1
	c-25.6,11.2-51,22.9-76.8,33.7C960.8,812.6,849,858.9,737.5,906c-53.5,22.6-106.3,46.5-159.5,69.7c-5.4,2.3-8.2,5.2-7.6,11.4
	c0.4,4.1-0.4,8.3-0.5,12.5c-0.7,33.5-1.3,66.9-2,100.4C567.9,1102.3,567.9,1104.6,567.9,1108z M535,871.9c2.4-0.9,4.3-1.6,6.1-2.3
	c100.6-41.4,201-83.1,301.7-124.1c88.5-36,177.4-71.3,266.2-106.7c3.6-1.5,4.7-3.2,4.5-6.9c-0.6-11.5-0.8-23-1.1-34.5
	c-0.8-28.1-1.5-56.3-2.3-84.4c-0.1-2-0.5-4.1-0.9-6.7c-5.9,2.6-11.1,4.8-16.3,7.1c-167.9,74-336,147.2-505.8,216.7
	c-14.8,6-29.6,11.9-44.7,16.9c-4.7,1.6-5.7,3.2-5.8,7.6c-0.4,26.5-1.1,53-1.6,79.4C534.9,846.4,535,858.7,535,871.9z M505,879.9
	c0.4-10,0.9-18.6,1.1-27.2c0.7-33.3,1.2-66.6,2.1-99.9c0.1-5.3-1.6-7.4-6.4-9.3c-79.9-30.5-159.8-60.7-239.3-92
	c-50.9-20-101.2-41.7-151.8-62.4c-2.9-1.2-6.9-2.3-9.4-1.2c-9.2,3.9-16.3,10.9-19.8,20c-2.6,6.8-3.2,14.6-3.6,22
	c-1.2,24,3.5,47.3,8.2,70.6c2.2,11,7.5,16.4,17.9,20.6c126,50.5,251.7,101.5,377.6,152.3C488.7,876.4,496.6,877.7,505,879.9z
	 M538.7,641.6c0.4-1,0.5-1.3,0.6-1.7c1-44,1.9-87.9,3-131.9c0.1-3.4-1.6-4.4-4.4-5.5C403.4,452.4,269,402.2,136.6,346.8
	c-1.3-0.6-2.7-0.9-4.4-1.5c-0.6,1.8-1.1,3.1-1.5,4.5c-7.8,27.6-9.8,55.6-6.7,84c1.4,12.4,4.4,24.6,11.1,35.4c2,3.3,5.5,6.4,9,7.9
	c61.9,26,124,51.7,186,77.5c68.3,28.5,136.5,57.1,204.8,85.7C536,640.9,537.2,641.2,538.7,641.6z M538.7,1106.4
	c0.3-1.9,0.5-2.9,0.5-3.9c0.7-35.8,1.3-71.6,2.1-107.4c0.1-3.5-1.3-5-4.4-6c-14.5-4.8-29.2-9.2-43.4-14.8
	c-38.5-15.2-77-30.5-115.1-46.6c-25.7-10.9-50.4-24.1-76.2-34.9c-56-23.4-112.4-45.8-168.7-68.6c-1-0.4-2.2-0.5-3.6-0.8
	c-4.3,14.4-5.9,28.9-5.7,43.5c0.3,23.8,3.1,47.4,7.2,70.9c0.9,5,2.9,7.7,7.7,9.6c126.8,50.4,253.6,101,380.4,151.6
	C525.7,1101.4,531.9,1103.8,538.7,1106.4z"/>
<path class="st0" d="M911.3,1371.9c-21.8-1.9-42.2-8.2-58.5-22.6c-25.8-22.8-33.5-60.4-30.6-94.7c1.3-15.4,4.7-31.1,13.8-43.5
	c13.9-18.8,38.1-26.1,60.7-32.3c105.3-28.7,211.2-55.4,317.6-79.8c-4.7,1.1-8.6-35.7-8.5-39.2c0.2-14,3.6-28,10.1-40.4
	c14.6-27.8,33.9-53.4,54.1-77.5c52.3-62.2,109.8-119.5,168.3-175.8c36.8-35.5,73.6-81,122.9-98.5c62-22,124.5-42.9,186.8-64.4
	c100.3-34.5,200.6-68.8,300.9-103.3c12.2-4.2,32.6,1.9,38,16c2.2,5.7,4.6,11.5,5.9,17.4c2.5,11-4.5,22.7-15.2,26.6
	c-86.8,31.3-173.6,62.6-260.4,93.8c-79.6,28.7-161.5,54-239.6,86.8c-11.6,4.9-21.1,12.3-29.9,21.2c-83.4,83.5-165,169.3-249.8,251.4
	c-9.1,8.8-17.7,18.5-22.4,30.3c-4.7,11.7-4.9,25.9,2.1,36.4c6.4,9.7,18.2,15,29.8,15.6c14.4,0.7,28.7-4.4,39.8-13.4
	c24.2-19.4,44.9-46,66.5-68.3c44.2-45.5,88.3-90.9,132.5-136.4c6.3-6.5,13.5-13.4,22.5-13.5c10.8-0.2,19.6,10.1,21,20.8
	c1.5,10.7-2.7,21.3-7.7,30.9c-13.4,25.4-33.5,46.6-53.3,67.4c-43.9,46.1-87.8,92.3-131.7,138.4c-18.9,19.9-41.2,41.2-68.6,40.6
	c-14.5-0.3-28.1-6.9-42.6-8.1c-12.8-1-25.6,2.3-38,5.6c-111.3,29.4-222.7,58.7-334,88.1c-8.9,2.3-18.4,5.1-24.1,12.3
	c-10.5,13.3-0.8,34.5,14.5,41.9c15.3,7.4,33.2,5.1,50,2.6c167.2-24.6,334.4-49.2,501.6-73.8c11.6-1.7,23.4-3.5,33.9-8.7
	c11.4-5.7,20.4-15.2,29-24.5c80.5-87,153.2-182.2,245.5-256.6s210.2-127,327.5-110.1c6.6,1,13.5,2.3,18.8,6.4
	c15,11.7,6.1,37.9-10.8,46.6s-37,6.2-56,5.9c-101.6-1.5-189.6,67-264.8,135.3c-70.8,64.3-138.9,131.8-199.9,205.5
	c-16.3,19.7-32.6,40.3-54.7,53c-22.4,12.9-48.7,16.7-74.3,20.2c-156.9,21.5-313.7,43.1-470.6,64.6
	C957.3,1371.3,933.6,1373.9,911.3,1371.9z"/>
</svg>
